<!--?xml version="1.0" encoding="utf-8"?-->
<!-- Generator: Adobe Illustrator 18.1.1, SVG Export Plug-In . SVG Version: 6.00 Build 0)  -->

<svg version="1.1" id="_x32_" xmlns="http://www.w3.org/2000/svg" xmlns:xlink="http://www.w3.org/1999/xlink" x="0px" y="0px" viewBox="0 0 512 512" style="width: 64px; height: 64px; opacity: 1;" xml:space="preserve">
<style type="text/css">
	.st0{fill:#4B4B4B;}
</style>
<g>
	<path class="st0" d="M0,53.579v404.841h512V53.579H0z M165.198,125.951c28.136,0,50.942,22.806,50.942,50.934
		c0,28.136-22.806,50.942-50.942,50.942c-28.126,0-50.934-22.806-50.934-50.942C114.264,148.757,137.071,125.951,165.198,125.951z
		 M52.244,391.713l74.967-114.227c4.298-6.548,11.404-10.715,19.216-11.273c7.813-0.558,15.431,2.558,20.611,8.436l44.665,50.617
		l80.938-123.157c4.641-7.06,12.51-11.32,20.965-11.32c8.445-0.01,16.333,4.232,20.983,11.282l125.157,189.641H52.244z" style="fill: rgb(75, 75, 75);"></path>
</g>
</svg>
